<!DOCTYPE svg PUBLIC "-//W3C//DTD SVG 1.1//EN" "http://www.w3.org/Graphics/SVG/1.1/DTD/svg11.dtd">
<!-- Uploaded to: SVG Repo, www.svgrepo.com, Transformed by: SVG Repo Mixer Tools -->
<svg fill="#ffffff" height="800px" width="800px" version="1.1" id="Layer_1" xmlns="http://www.w3.org/2000/svg" xmlns:xlink="http://www.w3.org/1999/xlink" viewBox="-128 -128 768.00 768.00" xml:space="preserve" stroke="#ffffff">
<g id="SVGRepo_bgCarrier" stroke-width="0"/>
<g id="SVGRepo_tracerCarrier" stroke-linecap="round" stroke-linejoin="round"/>
<g id="SVGRepo_iconCarrier"> <g> <g> <path d="M503.983,427.557h-13.224L368.517,273.146c9.835-12.077,15.216-27.091,15.216-42.8c0-37.426-30.448-67.875-67.875-67.875 c-36.462,0-66.29,28.904-67.802,65l-15.061-19.167c-4.793-6.101-11.993-9.6-19.752-9.6s-14.958,3.499-19.752,9.6L21.222,427.557 H8.017c-4.427,0-8.017,3.589-8.017,8.017c0,4.427,3.589,8.017,8.017,8.017h495.967c4.427,0,8.017-3.589,8.017-8.017 C512,431.147,508.411,427.557,503.983,427.557z M315.858,178.505c28.585,0,51.841,23.256,51.841,51.841 c0,10.788-3.315,21.153-9.443,29.839l-14.153-17.877c-4.794-6.054-11.973-9.527-19.694-9.527s-14.9,3.473-19.694,9.527 l-22.586,28.53l-10.362-13.188c-0.034-0.059-0.061-0.119-0.096-0.176c-5.008-8.136-7.654-17.517-7.654-27.127 C264.017,201.761,287.273,178.505,315.858,178.505z M362.812,291.772l-12.371,12.371c-0.208,0.208-0.547,0.208-0.756,0l-5.01-5.01 c-6.459-6.459-16.971-6.459-23.43,0l-9.454,9.455l-19.475-24.787l24.97-31.541c1.734-2.19,4.33-3.446,7.124-3.446 c2.794,0,5.389,1.256,7.124,3.446L362.812,291.772z M206.1,218.21c1.734-2.206,4.338-3.472,7.144-3.472s5.411,1.266,7.144,3.473 l46.121,58.699l-4.084,4.084c-1.716,1.716-3.998,2.662-6.424,2.662c-2.426,0-4.708-0.945-6.425-2.663l-1.467-1.465 c-4.744-4.744-11.051-7.357-17.762-7.357s-13.017,2.613-17.762,7.357l-18.57,18.57c-1.716,1.716-3.998,2.662-6.424,2.662 c-2.426,0-4.708-0.945-6.424-2.662l-21.188-21.187L206.1,218.21z M41.613,427.557l108.389-137.95l19.827,19.826 c4.744,4.744,11.051,7.357,17.762,7.357s13.017-2.613,17.762-7.357l18.57-18.57c1.716-1.716,3.998-2.661,6.424-2.661 s4.708,0.945,6.425,2.663l1.467,1.465c4.744,4.744,11.051,7.357,17.762,7.357s13.017-2.613,17.762-7.357l2.725-2.725 l108.389,137.952H41.613z M405.267,427.557l-83.499-106.272l10.815-10.815c0.208-0.208,0.547-0.208,0.756,0l5.01,5.01 c3.129,3.13,7.29,4.853,11.715,4.853c4.425,0,8.586-1.723,11.715-4.853l11.053-11.053l97.478,123.13H405.267z"/> </g> </g> <g> <g> <path d="M315.858,68.409c-4.427,0-8.017,3.589-8.017,8.017v59.858c0,4.427,3.589,8.017,8.017,8.017s8.017-3.589,8.017-8.017 V76.426C323.875,71.999,320.285,68.409,315.858,68.409z"/> </g> </g> <g> <g> <path d="M469.779,222.33h-59.858c-4.427,0-8.017,3.589-8.017,8.017s3.589,8.017,8.017,8.017h59.858 c4.427,0,8.017-3.589,8.017-8.017S474.206,222.33,469.779,222.33z"/> </g> </g> <g> <g> <path d="M388.276,104.915c-3.834-2.214-8.737-0.9-10.951,2.934l-21.378,37.029c-2.214,3.834-0.9,8.737,2.934,10.951 c1.262,0.729,2.641,1.075,4.001,1.075c2.771,0,5.465-1.438,6.95-4.009l21.378-37.029 C393.423,112.032,392.11,107.129,388.276,104.915z"/> </g> </g> <g> <g> <path d="M275.769,144.878l-21.378-37.029c-2.214-3.834-7.117-5.147-10.951-2.934c-3.834,2.214-5.148,7.117-2.934,10.951 l21.378,37.029c1.485,2.572,4.179,4.009,6.95,4.009c1.36,0,2.738-0.346,4.001-1.075 C276.669,153.615,277.983,148.712,275.769,144.878z"/> </g> </g> <g> <g> <path d="M438.354,291.813l-37.028-21.378c-3.834-2.214-8.737-0.9-10.951,2.934c-2.214,3.834-0.9,8.737,2.934,10.951l37.028,21.378 c1.262,0.729,2.641,1.075,4.001,1.075c2.771,0,5.465-1.438,6.95-4.009C443.502,298.93,442.188,294.027,438.354,291.813z"/> </g> </g> <g> <g> <path d="M238.406,176.373l-37.028-21.378c-3.834-2.215-8.737-0.901-10.951,2.934c-2.214,3.834-0.9,8.737,2.934,10.951 l37.028,21.378c1.262,0.729,2.641,1.075,4.001,1.075c2.771,0,5.465-1.438,6.95-4.009 C243.554,183.489,242.24,178.586,238.406,176.373z"/> </g> </g> <g> <g> <path d="M441.288,157.929c-2.214-3.835-7.118-5.148-10.951-2.934l-37.028,21.378c-3.834,2.214-5.148,7.117-2.934,10.951 c1.485,2.572,4.179,4.009,6.95,4.009c1.36,0,2.739-0.346,4.001-1.075l37.028-21.378 C442.188,166.666,443.502,161.763,441.288,157.929z"/> </g> </g> </g>
</svg>